<svg xmlns="http://www.w3.org/2000/svg" viewBox="0 0 1200 675" role="img" aria-label="RFM customer segmentation illustration">
  <defs>
    <linearGradient id="bg6" x1="0" x2="1" y1="0" y2="1">
      <stop offset="0" stop-color="#101b36"/>
      <stop offset="1" stop-color="#091024"/>
    </linearGradient>
  </defs>
  <rect width="1200" height="675" fill="url(#bg6)"/>
  <rect x="40" y="44" width="1120" height="588" rx="24" fill="#0a1530" stroke="#334f81"/>

  <text x="84" y="115" fill="#d7e8ff" font-size="42" font-family="Segoe UI, Arial" font-weight="700">Customer Segmentation (RFM)</text>
  <text x="84" y="152" fill="#83daff" font-size="24" font-family="Segoe UI, Arial">Recency · Frequency · Monetary analysis</text>

  <rect x="84" y="196" width="560" height="368" rx="18" fill="#132645" stroke="#486aa2"/>
  <text x="112" y="238" fill="#d0e5ff" font-size="24" font-family="Segoe UI, Arial">RFM Segment Map</text>
  <rect x="130" y="274" width="468" height="246" rx="12" fill="#10203d" stroke="#35547f"/>
  <path d="M364 274v246M130 397h468" stroke="#2f4d77" stroke-width="3"/>
  <circle cx="232" cy="333" r="11" fill="#8fe3ff"/>
  <circle cx="268" cy="368" r="11" fill="#8fe3ff"/>
  <circle cx="488" cy="336" r="11" fill="#90ffce"/>
  <circle cx="520" cy="370" r="11" fill="#90ffce"/>
  <circle cx="232" cy="455" r="11" fill="#ffd98c"/>
  <circle cx="270" cy="482" r="11" fill="#ffd98c"/>
  <circle cx="498" cy="452" r="11" fill="#ffb8d9"/>
  <circle cx="532" cy="478" r="11" fill="#ffb8d9"/>
  <text x="148" y="300" fill="#a8c7ee" font-size="18" font-family="Segoe UI, Arial">At Risk</text>
  <text x="402" y="300" fill="#a8c7ee" font-size="18" font-family="Segoe UI, Arial">Champions</text>
  <text x="138" y="515" fill="#a8c7ee" font-size="18" font-family="Segoe UI, Arial">Hibernating</text>
  <text x="404" y="515" fill="#a8c7ee" font-size="18" font-family="Segoe UI, Arial">Loyal</text>

  <rect x="684" y="196" width="418" height="112" rx="18" fill="#132645" stroke="#486aa2"/>
  <rect x="684" y="328" width="418" height="112" rx="18" fill="#132645" stroke="#486aa2"/>
  <rect x="684" y="460" width="418" height="104" rx="18" fill="#132645" stroke="#486aa2"/>

  <text x="720" y="266" fill="#d0e5ff" font-size="24" font-family="Segoe UI, Arial">Recency</text>
  <text x="720" y="398" fill="#d0e5ff" font-size="24" font-family="Segoe UI, Arial">Frequency</text>
  <text x="720" y="522" fill="#d0e5ff" font-size="24" font-family="Segoe UI, Arial">Monetary</text>
  <rect x="872" y="236" width="196" height="24" rx="12" fill="#2d4872"/>
  <rect x="872" y="236" width="156" height="24" rx="12" fill="#7fd7ff"/>
  <rect x="872" y="368" width="196" height="24" rx="12" fill="#2d4872"/>
  <rect x="872" y="368" width="132" height="24" rx="12" fill="#8de0ff"/>
  <rect x="872" y="492" width="196" height="24" rx="12" fill="#2d4872"/>
  <rect x="872" y="492" width="174" height="24" rx="12" fill="#9ce7ff"/>
</svg>
