<svg xmlns="http://www.w3.org/2000/svg" viewBox="0 0 1200 675" role="img" aria-label="Analytics dashboard illustration">
  <defs>
    <linearGradient id="bg3" x1="0" x2="1" y1="0" y2="1">
      <stop offset="0" stop-color="#101a34"/>
      <stop offset="1" stop-color="#091125"/>
    </linearGradient>
  </defs>
  <rect width="1200" height="675" fill="url(#bg3)"/>
  <rect x="40" y="44" width="1120" height="588" rx="24" fill="#0b1630" stroke="#334f81"/>

  <text x="84" y="115" fill="#d7e8ff" font-size="42" font-family="Segoe UI, Arial" font-weight="700">Business Analytics Dashboard</text>
  <text x="84" y="152" fill="#83daff" font-size="24" font-family="Segoe UI, Arial">AdventureWorks KPI and trend analysis</text>

  <rect x="84" y="195" width="238" height="130" rx="16" fill="#15294b" stroke="#4b6ea5"/>
  <rect x="344" y="195" width="238" height="130" rx="16" fill="#15294b" stroke="#4b6ea5"/>
  <rect x="604" y="195" width="238" height="130" rx="16" fill="#15294b" stroke="#4b6ea5"/>
  <rect x="864" y="195" width="238" height="130" rx="16" fill="#15294b" stroke="#4b6ea5"/>
  <text x="108" y="242" fill="#8bdfff" font-size="22" font-family="Segoe UI, Arial">Revenue</text>
  <text x="370" y="242" fill="#8bdfff" font-size="22" font-family="Segoe UI, Arial">Profit %</text>
  <text x="630" y="242" fill="#8bdfff" font-size="22" font-family="Segoe UI, Arial">Orders</text>
  <text x="890" y="242" fill="#8bdfff" font-size="22" font-family="Segoe UI, Arial">Growth</text>
  <text x="108" y="290" fill="#d7e8ff" font-size="34" font-family="Segoe UI, Arial" font-weight="700">$12.4M</text>
  <text x="370" y="290" fill="#d7e8ff" font-size="34" font-family="Segoe UI, Arial" font-weight="700">18.7%</text>
  <text x="630" y="290" fill="#d7e8ff" font-size="34" font-family="Segoe UI, Arial" font-weight="700">94,210</text>
  <text x="890" y="290" fill="#d7e8ff" font-size="34" font-family="Segoe UI, Arial" font-weight="700">+12.3%</text>

  <rect x="84" y="348" width="500" height="242" rx="16" fill="#132645" stroke="#4a6ca4"/>
  <text x="108" y="390" fill="#cde3ff" font-size="24" font-family="Segoe UI, Arial">Monthly Sales Trend</text>
  <path d="M118 545 L188 518 L258 528 L328 470 L398 482 L468 430 L538 448" fill="none" stroke="#77d5ff" stroke-width="6"/>
  <path d="M118 545 L538 545" stroke="#385783" stroke-width="3"/>
  <path d="M118 430 L538 430" stroke="#2a426a" stroke-width="2"/>
  <path d="M118 485 L538 485" stroke="#2a426a" stroke-width="2"/>

  <rect x="618" y="348" width="484" height="242" rx="16" fill="#132645" stroke="#4a6ca4"/>
  <text x="642" y="390" fill="#cde3ff" font-size="24" font-family="Segoe UI, Arial">Category Performance</text>
  <rect x="668" y="515" width="58" height="56" rx="6" fill="#7ed7ff"/>
  <rect x="750" y="472" width="58" height="99" rx="6" fill="#8adfff"/>
  <rect x="832" y="430" width="58" height="141" rx="6" fill="#96e4ff"/>
  <rect x="914" y="457" width="58" height="114" rx="6" fill="#7fc8ff"/>
  <text x="670" y="598" fill="#a8c6ed" font-size="18" font-family="Segoe UI, Arial">Bikes</text>
  <text x="751" y="598" fill="#a8c6ed" font-size="18" font-family="Segoe UI, Arial">Acc.</text>
  <text x="834" y="598" fill="#a8c6ed" font-size="18" font-family="Segoe UI, Arial">Comp.</text>
  <text x="917" y="598" fill="#a8c6ed" font-size="18" font-family="Segoe UI, Arial">Cloth.</text>
</svg>
