<svg xmlns="http://www.w3.org/2000/svg" viewBox="0 0 1200 675" role="img" aria-label="EEG and brain signal analysis illustration">
  <defs>
    <linearGradient id="bg5" x1="0" x2="1" y1="0" y2="1">
      <stop offset="0" stop-color="#101a34"/>
      <stop offset="1" stop-color="#091125"/>
    </linearGradient>
  </defs>
  <rect width="1200" height="675" fill="url(#bg5)"/>
  <rect x="40" y="44" width="1120" height="588" rx="24" fill="#0b1630" stroke="#334f81"/>

  <text x="84" y="115" fill="#d7e8ff" font-size="42" font-family="Segoe UI, Arial" font-weight="700">EEG and Brain Signal Analysis</text>
  <text x="84" y="152" fill="#83daff" font-size="24" font-family="Segoe UI, Arial">CNN-LSTM pipeline for epilepsy detection</text>

  <rect x="84" y="196" width="580" height="368" rx="18" fill="#132645" stroke="#486aa2"/>
  <text x="112" y="238" fill="#d0e5ff" font-size="24" font-family="Segoe UI, Arial">EEG Waveforms</text>
  <path d="M120 324 L170 324 L190 275 L212 386 L234 306 L256 342 L282 296 L305 358 L330 320 L356 346 L384 290 L412 366 L440 302 L468 334 L496 316 L524 356 L552 300 L590 330" fill="none" stroke="#80d9ff" stroke-width="5"/>
  <path d="M120 424 L590 424" stroke="#3a5a87" stroke-width="3"/>
  <path d="M120 474 L590 474" stroke="#3a5a87" stroke-width="3"/>

  <rect x="700" y="196" width="402" height="368" rx="18" fill="#132645" stroke="#486aa2"/>
  <text x="730" y="238" fill="#d0e5ff" font-size="24" font-family="Segoe UI, Arial">Neural Feature Map</text>
  <ellipse cx="898" cy="382" rx="115" ry="95" fill="none" stroke="#79d6ff" stroke-width="4"/>
  <ellipse cx="898" cy="382" rx="66" ry="58" fill="none" stroke="#79d6ff" stroke-width="3"/>
  <path d="M823 382h150M898 287v190" stroke="#79d6ff" stroke-width="3"/>
  <circle cx="852" cy="350" r="9" fill="#9fe8ff"/>
  <circle cx="944" cy="408" r="9" fill="#9fe8ff"/>
  <circle cx="908" cy="338" r="9" fill="#9fe8ff"/>

  <rect x="730" y="490" width="160" height="42" rx="10" fill="#213a66"/>
  <rect x="910" y="490" width="160" height="42" rx="10" fill="#213a66"/>
  <text x="770" y="518" fill="#d7e8ff" font-size="18" font-family="Segoe UI, Arial">CNN</text>
  <text x="955" y="518" fill="#d7e8ff" font-size="18" font-family="Segoe UI, Arial">LSTM</text>
</svg>
