<svg xmlns="http://www.w3.org/2000/svg" viewBox="0 0 1200 675" role="img" aria-label="News text classification illustration">
  <defs>
    <linearGradient id="bg4" x1="0" x2="1" y1="0" y2="1">
      <stop offset="0" stop-color="#101b36"/>
      <stop offset="1" stop-color="#091024"/>
    </linearGradient>
  </defs>
  <rect width="1200" height="675" fill="url(#bg4)"/>
  <rect x="40" y="44" width="1120" height="588" rx="24" fill="#0a1530" stroke="#334f81"/>

  <text x="84" y="115" fill="#d7e8ff" font-size="42" font-family="Segoe UI, Arial" font-weight="700">News Text Classification</text>
  <text x="84" y="152" fill="#84dbff" font-size="24" font-family="Segoe UI, Arial">Multi-class article identification and categorization</text>

  <rect x="84" y="196" width="516" height="368" rx="18" fill="#132645" stroke="#486aa2"/>
  <text x="112" y="238" fill="#d0e5ff" font-size="24" font-family="Segoe UI, Arial">Incoming Articles</text>

  <rect x="112" y="262" width="460" height="76" rx="12" fill="#1a3157"/>
  <rect x="112" y="352" width="460" height="76" rx="12" fill="#1a3157"/>
  <rect x="112" y="442" width="460" height="76" rx="12" fill="#1a3157"/>
  <path d="M140 295h250M140 316h190" stroke="#5f86be" stroke-width="4"/>
  <path d="M140 385h260M140 406h210" stroke="#5f86be" stroke-width="4"/>
  <path d="M140 475h220M140 496h170" stroke="#5f86be" stroke-width="4"/>
  <rect x="412" y="282" width="130" height="36" rx="18" fill="#7fd7ff"/>
  <rect x="412" y="372" width="130" height="36" rx="18" fill="#8ae0ff"/>
  <rect x="412" y="462" width="130" height="36" rx="18" fill="#99e6ff"/>
  <text x="445" y="307" fill="#0a152b" font-size="18" font-family="Segoe UI, Arial" font-weight="700">Sports</text>
  <text x="443" y="397" fill="#0a152b" font-size="18" font-family="Segoe UI, Arial" font-weight="700">Finance</text>
  <text x="451" y="487" fill="#0a152b" font-size="18" font-family="Segoe UI, Arial" font-weight="700">Health</text>

  <rect x="632" y="196" width="470" height="174" rx="18" fill="#132645" stroke="#486aa2"/>
  <text x="660" y="240" fill="#d0e5ff" font-size="24" font-family="Segoe UI, Arial">Model Stack</text>
  <rect x="660" y="262" width="120" height="44" rx="10" fill="#203a67"/><text x="694" y="290" fill="#d7e8ff" font-size="18" font-family="Segoe UI, Arial">NLP</text>
  <rect x="796" y="262" width="120" height="44" rx="10" fill="#203a67"/><text x="830" y="290" fill="#d7e8ff" font-size="18" font-family="Segoe UI, Arial">CNN</text>
  <rect x="932" y="262" width="120" height="44" rx="10" fill="#203a67"/><text x="965" y="290" fill="#d7e8ff" font-size="18" font-family="Segoe UI, Arial">BERT</text>

  <rect x="632" y="390" width="470" height="174" rx="18" fill="#132645" stroke="#486aa2"/>
  <text x="660" y="435" fill="#d0e5ff" font-size="24" font-family="Segoe UI, Arial">Class Distribution</text>
  <path d="M680 530 L742 500 L804 515 L866 472 L928 488 L990 452" fill="none" stroke="#82dbff" stroke-width="6"/>
  <path d="M680 530 L1038 530" stroke="#36547e" stroke-width="3"/>
</svg>
